<?xml version="1.0" encoding="utf-8"?>
<!-- Generator: Adobe Illustrator 24.0.1, SVG Export Plug-In . SVG Version: 6.00 Build 0)  -->
<svg version="1.1" id="Capa_1" xmlns="http://www.w3.org/2000/svg" xmlns:xlink="http://www.w3.org/1999/xlink" x="0px" y="0px"
	 viewBox="0 0 512 512" style="enable-background:new 0 0 512 512;" xml:space="preserve">
<style type="text/css">
	.st0{fill:#FFFFFF;}
</style>
<g>
	<path class="st0" d="M510.2,243.2c2.1-4.2,2.4-9.1,0.8-13.6c-7.2-20-17.8-38.4-31.5-54.9c-2.6-3.2-7.4-3.6-10.6-1
		c-3.2,2.6-3.6,7.4-1,10.6c12.6,15.1,22.3,32,28.9,50.4c0.3,0.8,0.1,1.4-0.1,1.7c-0.2,0.4-0.6,0.8-1.3,1.1l-55.3,16.3
		c-1,0.3-2.1-0.2-2.5-1.3c-5.3-13.3-13.5-25.8-23.6-35.9c-10.2-10.2-22.6-18.4-35.9-23.6c-1-0.4-1.6-1.5-1.3-2.5l16.3-55.3
		c0.2-0.7,0.7-1.1,1.1-1.3c0.3-0.2,0.9-0.4,1.7-0.1c18,6.5,34.7,16,49.7,28.3c3.2,2.6,7.9,2.2,10.6-1c2.6-3.2,2.2-7.9-1-10.6
		c-16.3-13.4-34.5-23.7-54.1-30.8c-4.4-1.6-9.4-1.3-13.6,0.8c-2.6,1.3-4.7,3.2-6.4,5.6c-20.6-5.3-41.8-6.6-63-4
		c-2.3-3.9-4.8-7.8-7.4-11.5c-17.5-25-41.4-44.9-69-57.5c-4.3-2-9.2-2.1-13.6-0.3c-2.7,1.1-5,2.9-6.8,5.1
		c-16.3-5.5-33.4-8.3-50.6-8.3c-17.3,0-34.3,2.8-50.6,8.3c-1.8-2.2-4.1-4-6.8-5.1c-4.4-1.8-9.3-1.7-13.6,0.3
		c-27.6,12.6-51.5,32.5-69,57.5C10,140.3-0.6,175.2,0,211.5c0.6,37,12.8,72,35.1,101.1c2.5,3.3,7.2,3.9,10.5,1.4
		c3.3-2.5,3.9-7.2,1.4-10.5c-20.4-26.6-31.5-58.4-32-92.2c-0.6-33.1,9.1-65,28-92c16-22.8,37.7-41,62.9-52.5c0.7-0.3,1.4-0.2,1.7,0
		c0.4,0.2,0.9,0.5,1.2,1.2l12.1,31.4c0.4,1,0,2.2-1,2.6c-18.3,8.7-34.2,22.2-45.9,39c-14.2,20.3-21.5,44.1-21.3,69
		c0.3,30.4,12.3,59.2,33.8,81.1c21.4,21.9,50,34.5,80.4,35.5c1.3,0,2.7,0.1,4,0.1c30.8,0,59.8-11.7,82-33.2
		c23.2-22.5,36-52.6,36-84.8c0-2.2-0.1-4.5-0.2-6.8c10-5.6,20.9-9.5,32.3-11.5c1.5-0.3,3-0.5,4.4-0.7c0.8,6.3,1.1,12.6,1.1,19
		c0,85.9-69.9,155.8-155.8,155.8c-37.6,0-73.9-13.5-102.1-37.9c-3.1-2.7-7.9-2.4-10.6,0.8c-2.7,3.1-2.4,7.9,0.8,10.6
		c30.9,26.8,70.7,41.5,111.9,41.5c7.1,0,14-0.4,20.9-1.3c7.3,12.5,16.3,24.1,26.6,34.4c33.3,33.3,77,49.9,120.8,49.9
		s87.5-16.6,120.8-49.9c24.9-24.9,41.3-56.4,47.4-90.9c4.3-24.2,3.4-48.4-2.6-71.9C506.9,247.9,508.9,245.8,510.2,243.2L510.2,243.2
		z M233.9,66.7c0.3-0.1,1-0.3,1.7,0c25.2,11.5,46.9,29.6,62.9,52.5c1.3,1.8,2.5,3.7,3.7,5.6c-12.9,2.8-25.3,7.1-37,12.7
		c-11.5-15.2-26.4-27.5-43.5-35.7c-0.9-0.5-1.4-1.6-1-2.6l12.1-31.4C233,67.2,233.5,66.9,233.9,66.7z M67.7,209.7
		c-0.2-21.7,6.2-42.5,18.5-60.2c10.2-14.6,24.1-26.4,40.1-34c6.4-3.1,10.1-9.8,9.6-16.6c6.2-2,12.6-3.4,19.1-4.3
		c4.1-0.6,7-4.4,6.4-8.5c-0.6-4.1-4.3-7-8.5-6.4c-7.4,1-14.6,2.7-21.7,4.9l-4.9-12.9c14.4-4.7,29.3-7,44.5-7c15.2,0,30.1,2.4,44.5,7
		l-4.9,12.9c-7.3-2.3-14.7-4-22.3-5c-4.1-0.5-7.9,2.3-8.4,6.4c-0.5,4.1,2.3,7.9,6.4,8.4c6.7,0.9,13.2,2.4,19.6,4.4
		c-0.5,6.8,3.2,13.5,9.6,16.6c14.2,6.8,26.8,16.9,36.6,29.3c-12.1,7.2-23.4,16-33.5,26.1c-36.8,36.8-54.8,88.9-48.8,140.6
		c-0.7,0-1.4,0-2.2,0C112.1,309.7,68.3,264.9,67.7,209.7z M242.4,282.5c-2.1,2-4.2,3.9-6.3,5.7c0.9-26,11.5-50.8,30.1-69.4
		c2.4-2.4,5-4.7,7.7-6.9C272.9,238.7,261.9,263.7,242.4,282.5L242.4,282.5z M318.4,175.4c-23.9,4.2-45.6,15.5-62.8,32.8
		c-23.8,23.8-36.3,56.6-34.3,90.2c-11.3,6.4-23.7,10.5-36.7,12.3c-5.8-47.4,10.6-95.4,44.4-129.1c22.7-22.7,51.4-37.7,82.9-43.2
		c21.6-3.8,43.2-3.1,64.2,2l-10.7,36.2C349.9,173,334.2,172.6,318.4,175.4L318.4,175.4z M341.6,208.5c0-6.7-0.4-13.3-1.2-19.9
		c7.2,0.1,14.3,0.9,21.4,2.5c0,6.8,4.1,13.2,10.8,15.8c11.4,4.5,22.1,11.6,30.9,20.3c8.7,8.7,15.8,19.4,20.3,30.9
		c2.7,6.7,9,10.8,15.8,10.8c0,0,0,0,0,0c3,13.4,3.4,27.1,0.9,40.8c-3.7,20.8-13.6,39.8-28.6,54.8c-40.2,40.2-105.6,40.2-145.8,0
		c-2.9-2.9-5.6-6-8.2-9.3C308,325.4,341.6,270.8,341.6,208.5L341.6,208.5z M492.4,318.9c-5.6,31.5-20.5,60.2-43.2,82.9
		c-30.4,30.4-70.3,45.6-110.2,45.6c-39.9,0-79.8-15.2-110.2-45.6c-8.1-8.1-15.2-17-21.3-26.6c12.9-2.9,25.3-7.2,37-12.8
		c3.3,4.5,7,8.7,11,12.7c23,23,53.3,34.5,83.5,34.5c30.2,0,60.5-11.5,83.5-34.5c17.2-17.2,28.6-38.9,32.8-62.8
		c2.8-15.8,2.4-31.6-1.1-47l36.2-10.7C495.6,275.7,496.2,297.2,492.4,318.9z"/>
</g>
</svg>
