<svg xmlns="http://www.w3.org/2000/svg" viewBox="0 0 282.12 205.3"><defs><style>.cls-1{fill:#fff;}</style></defs><title>lazo</title><g id="Capa_2" data-name="Capa 2"><g id="Capa_1-2" data-name="Capa 1"><path class="cls-1" d="M141.06,29.33c0,7.69-5.67,11.05-10.93,11.05-5.9,0-10.53-4.13-10.53-10.71,0-6.91,4.85-11,10.89-11C136.8,18.67,141.06,23,141.06,29.33Zm-17.38.21c0,4.56,2.73,8,6.63,8s6.67-3.4,6.67-8.08c0-3.53-1.86-7.95-6.58-7.95S123.68,25.63,123.68,29.54Z"/><path class="cls-1" d="M130.13,41C123.55,41,119,36.35,119,29.67,119,22.82,123.7,18,130.49,18c6.6,0,11.21,4.65,11.21,11.3C141.7,37.36,135.7,41,130.13,41Zm.36-21.7c-6.14,0-10.26,4.16-10.26,10.36,0,5.93,4.07,10.07,9.9,10.07,5.12,0,10.3-3.22,10.3-10.41C140.43,23.34,136.43,19.31,130.49,19.31Zm-.18,18.87c-4.21,0-7.27-3.63-7.27-8.64,0-4.17,2.31-8.67,7.36-8.67s7.22,4.45,7.22,8.59C137.62,34.43,134.47,38.18,130.31,38.18Zm.09-16c-4.2,0-6.08,3.71-6.08,7.39,0,4.27,2.52,7.36,6,7.36s6-3.13,6-7.44C136.34,26.93,135.1,22.15,130.4,22.15Z"/><path class="cls-1" d="M174.64,144.64h-11v-8.49a4.53,4.53,0,0,0-4.23-4.78h-1a51.39,51.39,0,0,1-6.91.09,1.35,1.35,0,0,1-.46-.1h-1.25a4.54,4.54,0,0,0-4.23,4.79v8.49h-11a4.54,4.54,0,0,0-4.22,4.79v10.92a4.53,4.53,0,0,0,4.22,4.78h11v3.23a2.69,2.69,0,1,0,5.33,0v-6.25a2.85,2.85,0,0,0-2.67-3H135.65v-8.42H148.2a2.86,2.86,0,0,0,2.67-3V137.4h7.45v10.26a2.86,2.86,0,0,0,2.67,3h12.55v8.42H161a2.86,2.86,0,0,0-2.67,3v37.16h-7.45V182.78a2.69,2.69,0,1,0-5.33,0v17.74a4.53,4.53,0,0,0,4.23,4.78h9.65a4.53,4.53,0,0,0,4.23-4.78V165.13h11a4.53,4.53,0,0,0,4.22-4.78V149.43A4.54,4.54,0,0,0,174.64,144.64Z"/><path class="cls-1" d="M276.86,51.68h0a22.72,22.72,0,0,0-3.38-14,14.57,14.57,0,0,0,1.17-5.77A14,14,0,0,0,271,22.31a2.46,2.46,0,0,0-3.77.1,3.31,3.31,0,0,0,.09,4.27,7.6,7.6,0,0,1,2,5.2c0,4-2.87,7.22-6.39,7.22s-6.4-3.24-6.4-7.22a7.71,7.71,0,0,1,1.81-5,3.3,3.3,0,0,0-.05-4.27,2.45,2.45,0,0,0-3.76.05,13.42,13.42,0,0,0-1.93,3c-3.18-.25-6.55-.26-10.1-.26h-.29c-1.05-6.1-5.8-10.72-11.49-10.72-5,0-9.32,3.6-11,8.64a47,47,0,0,1-5.9-2l-.41-.17a16.25,16.25,0,0,0,.15-2.11c0-7.31-5.26-13.25-11.72-13.25a11.56,11.56,0,0,0-10.18,6.71c-2-.61-4-1.09-5.88-1.47C184.86,4.77,180,0,174.26,0c-6.46,0-11.71,5.94-11.72,13.24-1.15.46-2.27,1-3.38,1.51,1.15,1.64,2.32,3.26,3.46,4.91l1.15-.51c1.93,4.35,5.9,7.35,10.49,7.35,5.28,0,9.76-4,11.21-9.42,1.52.31,3.07.71,4.69,1.19,0,.25,0,.5,0,.75,0,7.31,5.26,13.25,11.72,13.25a11.35,11.35,0,0,0,9.53-5.56L212,27a50.75,50.75,0,0,0,7.06,2.32c.62,6.66,5.61,11.86,11.66,11.86,5.39,0,9.93-4.14,11.29-9.75h.48c3.07,0,6,0,8.73.18,0,.1,0,.2,0,.3,0,7.31,5.26,13.25,11.72,13.25a10.78,10.78,0,0,0,7-2.61,16.06,16.06,0,0,1,1.72,7,10,10,0,0,0-1.22-.07c-6.46,0-11.72,5.94-11.72,13.25A14.36,14.36,0,0,0,261,70.65c-1.74,1.9-3.7,3.84-5.85,5.78a10.92,10.92,0,0,0-7.73-3.31c-6.46,0-11.72,5.94-11.72,13.25a14.74,14.74,0,0,0,.62,4.24c-2,1.31-4.12,2.59-6.2,3.81h0a13.35,13.35,0,0,0-5.22,5.8,23.14,23.14,0,0,0-4.5-6.85,34.24,34.24,0,0,0-8.15-6.27v-.22a14,14,0,0,0-3.58-9.54,2.46,2.46,0,0,0-3.77.08,3.31,3.31,0,0,0,.07,4.27,7.64,7.64,0,0,1,2,5.19c0,4-2.87,7.21-6.39,7.21s-6.4-3.23-6.4-7.21a7.68,7.68,0,0,1,1.83-5,3.3,3.3,0,0,0,0-4.26,2.44,2.44,0,0,0-3.76,0,13.33,13.33,0,0,0-1.93,2.94L187,80c-1.44-.22-2.87-.43-4.28-.66q-1.6-.27-3.18-.57c0-.2,0-.41,0-.61,0-7.31-5.26-13.25-11.72-13.25a11.53,11.53,0,0,0-10.08,6.51,47.49,47.49,0,0,1-6.62-4.32,14.58,14.58,0,0,0,1.66-6.8c0-7.29-5.22-13.21-11.66-13.25q.09-1.19.3-2.37a37.32,37.32,0,0,1-5.15-1.58,32.21,32.21,0,0,0-.54,5.41,13.56,13.56,0,0,0-6.38,11.79c0,7.3,5.26,13.25,11.72,13.25a10.66,10.66,0,0,0,6.27-2.07,53.41,53.41,0,0,0,8.8,5.75c0,.31,0,.61,0,.93,0,7.3,5.25,13.25,11.71,13.25A11.6,11.6,0,0,0,178,84.65c1.27.25,2.57.48,3.89.7l4.33.67,2.59.4c0,.16,0,.31,0,.46,0,7.3,5.26,13.25,11.72,13.25a11.64,11.64,0,0,0,10.34-7,28.72,28.72,0,0,1,5.92,4.72,17.05,17.05,0,0,1,3.28,5,13.57,13.57,0,0,0-6.2,11.69c0,6.27,3.87,11.53,9,12.9v.75a49.67,49.67,0,0,0,5.32-.07v-.68c5.18-1.37,9-6.63,9-12.9,0-5.52-3-10.26-7.24-12.25a7.35,7.35,0,0,1,2.52-2.44c2.2-1.3,4.4-2.66,6.55-4a11.08,11.08,0,0,0,8.29,3.89c6.46,0,11.71-5.94,11.71-13.25a14.57,14.57,0,0,0-.88-5,94,94,0,0,0,6.86-6.79A10.58,10.58,0,0,0,270.41,76c6.46,0,11.71-6,11.71-13.25A13.75,13.75,0,0,0,276.86,51.68ZM174.26,20.46c-3.53,0-6.39-3.23-6.39-7.21S170.73,6,174.26,6s6.39,3.24,6.39,7.22S177.78,20.46,174.26,20.46Zm27.6,5.78c-3.53,0-6.39-3.24-6.39-7.22s2.86-7.22,6.39-7.22S208.25,15,208.25,19,205.38,26.24,201.86,26.24Zm28.87,8.88c-3.53,0-6.4-3.24-6.4-7.22s2.87-7.21,6.4-7.21,6.39,3.23,6.39,7.21S234.25,35.12,230.73,35.12ZM141.06,67.55c-3.53,0-6.39-3.23-6.39-7.21s2.86-7.22,6.39-7.22,6.39,3.24,6.39,7.22S144.58,67.55,141.06,67.55Zm26.75,17.86c-3.52,0-6.39-3.23-6.39-7.21S164.29,71,167.81,71s6.39,3.24,6.39,7.22S171.34,85.41,167.81,85.41ZM232,114.47c0,4-2.87,7.21-6.39,7.21s-6.39-3.24-6.39-7.21,2.87-7.22,6.39-7.22S232,110.49,232,114.47Zm15.44-20.88c-3.53,0-6.4-3.24-6.4-7.22s2.87-7.21,6.4-7.21,6.39,3.23,6.39,7.21S251,93.59,247.44,93.59Zm23-23.65c-3.53,0-6.4-3.23-6.4-7.21s2.87-7.22,6.4-7.22,6.39,3.24,6.39,7.22S273.93,69.94,270.41,69.94Z"/><path class="cls-1" d="M157.47,20.88a4.8,4.8,0,0,1,3.12,1.6c.88-1.2,1.6-2.18,2-2.82l-1.51-3-1.71-2-4.17,6.15A9.14,9.14,0,0,1,157.47,20.88Z"/><path class="cls-1" d="M146.4,48.55a32.21,32.21,0,0,0-.54-5.41,54.05,54.05,0,0,1,4.47-6.78l-.24,0c-.88-.26-1.08-1.36-1.88-1.43a2.09,2.09,0,0,1-1.68-1.28l-5.39,7.95c-1.47-2-2.93-4.1-4.41-6.21A4.93,4.93,0,0,1,133,38c.76,1,1.52,2.07,2.29,3.1l2.91,6.34h0c-5.1,1.43-8.88,6.65-8.88,12.85a14.46,14.46,0,0,0,1.67,6.8,48.2,48.2,0,0,1-6.63,4.32A11.53,11.53,0,0,0,114.31,65c-6.46,0-11.72,5.94-11.72,13.25,0,.2,0,.41,0,.61-1,.2-2.11.39-3.18.57-1.41.23-2.84.44-4.28.66l-3.29.51a13.33,13.33,0,0,0-1.93-2.94,2.44,2.44,0,0,0-3.76,0,3.3,3.3,0,0,0,0,4.26,7.68,7.68,0,0,1,1.83,5c0,4-2.87,7.21-6.39,7.21s-6.4-3.23-6.4-7.21a7.64,7.64,0,0,1,2-5.19,3.31,3.31,0,0,0,.07-4.27,2.45,2.45,0,0,0-3.76-.08,14,14,0,0,0-3.59,9.54v.22a34.24,34.24,0,0,0-8.15,6.27,23.14,23.14,0,0,0-4.5,6.85A13.35,13.35,0,0,0,52,94.42h0c-2.08-1.22-4.16-2.5-6.2-3.81a14.74,14.74,0,0,0,.62-4.24c0-7.31-5.26-13.25-11.72-13.25A10.92,10.92,0,0,0,27,76.43c-2.15-1.94-4.11-3.88-5.85-5.78a14.36,14.36,0,0,0,2.33-7.92c0-7.31-5.25-13.25-11.72-13.25a9.71,9.71,0,0,0-1.21.07,15.78,15.78,0,0,1,1.72-7,10.75,10.75,0,0,0,7,2.61c6.46,0,11.72-5.94,11.72-13.25,0-.1,0-.2,0-.3,2.73-.16,5.66-.17,8.73-.18h.48C41.46,37,46,41.15,51.4,41.15c6,0,11-5.2,11.65-11.86A51.32,51.32,0,0,0,70.12,27l.61-.26a11.37,11.37,0,0,0,9.53,5.56C86.72,32.27,92,26.33,92,19c0-.25,0-.5,0-.75,1.62-.48,3.18-.88,4.69-1.19,1.45,5.44,5.93,9.42,11.21,9.42,4.59,0,8.56-3,10.49-7.35l1.15.51c1.16,1.59,2.33,3.17,3.5,4.76l.26,0a1.5,1.5,0,0,1,1,.37c.38-1.5,1.19-3.07,2.66-3.2a1.93,1.93,0,0,1,.27-.3Q125,18,123,14.75c-.54-.27-1.1-.53-1.68-.79s-1.16-.5-1.71-.72c0-7.3-5.26-13.24-11.72-13.24-5.78,0-10.6,4.77-11.54,11-1.9.38-3.84.86-5.88,1.47A11.56,11.56,0,0,0,80.26,5.77C73.8,5.77,68.55,11.71,68.55,19a14.66,14.66,0,0,0,.15,2.11l-.42.17a46.44,46.44,0,0,1-5.9,2c-1.66-5-6-8.64-11-8.64-5.7,0-10.45,4.62-11.5,10.72h-.29c-3.55,0-6.91,0-10.1.26a13.07,13.07,0,0,0-1.93-3,2.45,2.45,0,0,0-3.76-.05,3.3,3.3,0,0,0-.05,4.27,7.65,7.65,0,0,1,1.81,5c0,4-2.87,7.22-6.39,7.22s-6.4-3.24-6.4-7.22a7.6,7.6,0,0,1,2-5.2,3.31,3.31,0,0,0,.09-4.27,2.45,2.45,0,0,0-3.76-.1,14,14,0,0,0-3.62,9.57,14.57,14.57,0,0,0,1.17,5.77,22.72,22.72,0,0,0-3.38,14h0A13.75,13.75,0,0,0,0,62.73C0,70,5.26,76,11.72,76A10.54,10.54,0,0,0,17,74.55a94,94,0,0,0,6.86,6.79,14.57,14.57,0,0,0-.88,5c0,7.31,5.26,13.25,11.72,13.25A11,11,0,0,0,43,95.73c2.15,1.39,4.35,2.75,6.55,4A7.35,7.35,0,0,1,52,102.22c-4.25,2-7.24,6.73-7.24,12.25,0,6.27,3.87,11.53,9.05,12.9v.68a49.7,49.7,0,0,0,5.32.07v-.75c5.18-1.37,9-6.63,9-12.9A13.57,13.57,0,0,0,62,102.78a17.05,17.05,0,0,1,3.28-5,28.72,28.72,0,0,1,5.92-4.72,11.64,11.64,0,0,0,10.35,7c6.46,0,11.71-5.95,11.71-13.25,0-.15,0-.3,0-.46l2.59-.4,4.33-.67c1.32-.22,2.62-.45,3.89-.7a11.6,11.6,0,0,0,10.23,6.8c6.46,0,11.72-6,11.72-13.25,0-.32,0-.62,0-.93a53.41,53.41,0,0,0,8.8-5.75,10.66,10.66,0,0,0,6.27,2.07c6.46,0,11.72-6,11.72-13.25A13.56,13.56,0,0,0,146.4,48.55ZM107.86,6c3.53,0,6.4,3.24,6.4,7.22s-2.87,7.21-6.4,7.21-6.39-3.23-6.39-7.21S104.34,6,107.86,6ZM80.26,11.8c3.53,0,6.39,3.24,6.39,7.22s-2.86,7.22-6.39,7.22S73.87,23,73.87,19,76.74,11.8,80.26,11.8ZM51.4,20.69c3.52,0,6.39,3.23,6.39,7.21s-2.87,7.22-6.39,7.22S45,31.88,45,27.9,47.87,20.69,51.4,20.69ZM11.72,69.94c-3.53,0-6.4-3.23-6.4-7.21s2.87-7.22,6.4-7.22,6.39,3.24,6.39,7.22S15.24,69.94,11.72,69.94Zm23,23.65c-3.53,0-6.4-3.24-6.4-7.22s2.87-7.21,6.4-7.21,6.39,3.23,6.39,7.21S38.21,93.59,34.69,93.59ZM62.9,114.47c0,4-2.87,7.21-6.39,7.21s-6.39-3.23-6.39-7.21,2.87-7.22,6.39-7.22S62.9,110.49,62.9,114.47Zm51.41-29.06c-3.52,0-6.39-3.23-6.39-7.21S110.78,71,114.31,71s6.39,3.24,6.39,7.22S117.83,85.41,114.31,85.41Zm26.75-17.86c-3.52,0-6.39-3.23-6.39-7.21s2.87-7.22,6.39-7.22,6.4,3.24,6.4,7.22S144.59,67.55,141.06,67.55Z"/><path class="cls-1" d="M163.27,28.64c0,7.69-5.67,11-10.94,11-5.9,0-10.53-4.13-10.53-10.71,0-6.91,4.86-11,10.9-11C159,18,163.27,22.32,163.27,28.64Zm-17.38.22c0,4.55,2.72,8,6.63,8s6.67-3.39,6.67-8.08c0-3.52-1.86-7.95-6.58-7.95S145.89,24.94,145.89,28.86Z"/><path class="cls-1" d="M152.33,40.32c-6.57,0-11.16-4.66-11.16-11.34,0-6.85,4.74-11.64,11.53-11.64,6.6,0,11.21,4.65,11.21,11.3C163.91,36.67,157.91,40.32,152.33,40.32Zm.37-21.7c-6.14,0-10.26,4.17-10.26,10.36,0,5.93,4.07,10.07,9.89,10.07,5.13,0,10.3-3.22,10.3-10.41C162.63,22.65,158.64,18.62,152.7,18.62Zm-.18,18.87c-4.21,0-7.27-3.63-7.27-8.63,0-4.18,2.3-8.68,7.36-8.68s7.22,4.45,7.22,8.59C159.83,33.74,156.68,37.49,152.52,37.49Zm.09-16c-4.2,0-6.08,3.71-6.08,7.4,0,4.26,2.52,7.35,6,7.35s6-3.13,6-7.44C158.55,26.24,157.31,21.46,152.61,21.46Z"/><path class="cls-1" d="M144.21,82.21a9.72,9.72,0,0,1,3.19-.75l1.38-.28-1.61-11.74L139.5,69q1,7,2,13.92C142.38,82.67,143.3,82.44,144.21,82.21Z"/><path class="cls-1" d="M151,105a1.42,1.42,0,0,1,1.07.36l-1-7.33c-2.26.91-4.93,2.08-7.24,1.35l-.07,0c.37,2.59.73,5.19,1.1,7.79A13.33,13.33,0,0,1,151,105Z"/><path class="cls-1" d="M154.23,120.91a4.8,4.8,0,0,1-1.37.73A10.48,10.48,0,0,1,147,122l1.93,13.71,7.4.37Q155.28,128.51,154.23,120.91Z"/><path class="cls-1" d="M156.13,89.81c0,7.7-5.67,11-10.93,11-5.9,0-10.53-4.13-10.53-10.7,0-6.92,4.85-11,10.89-11C151.87,79.16,156.13,83.5,156.13,89.81ZM138.75,90c0,4.55,2.72,8,6.63,8s6.67-3.39,6.67-8.08c0-3.52-1.86-8-6.58-8S138.75,86.12,138.75,90Z"/><path class="cls-1" d="M145.2,101.5c-6.58,0-11.17-4.67-11.17-11.34,0-6.86,4.74-11.64,11.53-11.64,6.6,0,11.21,4.64,11.21,11.3C156.77,97.84,150.77,101.5,145.2,101.5Zm.36-21.71c-6.14,0-10.26,4.17-10.26,10.37,0,5.92,4.07,10.06,9.9,10.06,5.12,0,10.3-3.22,10.3-10.4C155.5,83.82,151.5,79.79,145.56,79.79Zm-.18,18.87c-4.21,0-7.27-3.63-7.27-8.63,0-4.18,2.31-8.68,7.36-8.68s7.22,4.46,7.22,8.59C152.69,94.91,149.54,98.66,145.38,98.66Zm.09-16c-4.2,0-6.08,3.72-6.08,7.4,0,4.26,2.52,7.36,6,7.36s6-3.13,6-7.45C151.41,87.41,150.17,82.63,145.47,82.63Z"/><path class="cls-1" d="M160.57,114.27c0,7.7-5.67,11-10.93,11-5.9,0-10.53-4.13-10.53-10.7,0-6.92,4.85-11,10.89-11C156.31,103.61,160.57,108,160.57,114.27Zm-17.38.22c0,4.55,2.73,8,6.63,8s6.67-3.39,6.67-8.08c0-3.52-1.86-8-6.58-8S143.19,110.58,143.19,114.49Z"/><path class="cls-1" d="M149.64,126c-6.58,0-11.17-4.67-11.17-11.34,0-6.86,4.74-11.64,11.53-11.64,6.6,0,11.21,4.64,11.21,11.29C161.21,122.3,155.21,126,149.64,126Zm.36-21.71c-6.13,0-10.26,4.17-10.26,10.37,0,5.92,4.07,10.06,9.9,10.06,5.12,0,10.3-3.22,10.3-10.41C159.94,108.28,155.94,104.25,150,104.25Zm-.18,18.87c-4.21,0-7.27-3.63-7.27-8.63,0-4.18,2.31-8.68,7.36-8.68s7.22,4.45,7.22,8.59C157.13,119.37,154,123.12,149.82,123.12Zm.09-16c-4.2,0-6.08,3.71-6.08,7.4,0,4.26,2.52,7.35,6,7.35s6-3.13,6-7.44C155.85,111.87,154.61,107.09,149.91,107.09Z"/></g></g></svg>