<svg id="Capa_1" enable-background="new 0 0 512 512" height="512" viewBox="0 0 512 512" width="512" xmlns="http://www.w3.org/2000/svg"><path d="m497 469.5h-70.536c2.731-3.981 5.042-8.375 6.639-12.071 4.708-10.893 5.057-18.81 1.037-23.532-6.215-7.301-20.754-4.026-30.506-.476-3.617-9.727-10.546-22.921-20.134-22.921s-16.517 13.194-20.134 22.921c-9.752-3.549-24.291-6.826-30.505.475-4.021 4.723-3.672 12.64 1.036 23.533 1.597 3.696 3.907 8.09 6.639 12.071h-278.536v-75h50.5c4.143 0 7.5-3.358 7.5-7.5s-3.357-7.5-7.5-7.5h-50.5v-13.5c0-4.136 3.364-7.5 7.5-7.5h209.782c.167.006.337.006.508 0h162.71c4.136 0 7.5 3.364 7.5 7.5v13.5h-302.5c-4.143 0-7.5 3.358-7.5 7.5s3.357 7.5 7.5 7.5h302.5v47.5c0 4.142 3.357 7.5 7.5 7.5s7.5-3.358 7.5-7.5v-76c0-12.407-10.094-22.5-22.5-22.5h-37.5v-103.5c0-12.407-10.094-22.5-22.5-22.5h-37.5v-104.5c0-12.407-10.094-22.5-22.5-22.5h-13.407c4.063-11.896 7.349-26.294 7.349-38.204 0-4.811-3.328-10.693-9.736-14.791 2.396-3.576 3.794-7.877 3.794-12.505 0-12.426-10.074-22.5-22.5-22.5s-22.5 10.074-22.5 22.5c0 4.628 1.399 8.928 3.794 12.505-6.408 4.098-9.736 9.98-9.736 14.791 0 11.91 3.286 26.308 7.349 38.204h-11.039c-1.163-10.125-4.062-21.918-8.158-32.892-2.092-5.603-4.337-10.523-6.543-14.368 5.652-4.087 9.333-10.732 9.333-18.24 0-12.426-10.074-22.5-22.5-22.5s-22.5 10.074-22.5 22.5c0 7.508 3.681 14.153 9.333 18.24-2.206 3.845-4.451 8.765-6.543 14.368-4.097 10.973-6.995 22.767-8.158 32.892h-10.632c-12.406 0-22.5 10.093-22.5 22.5v48.303c-5.751 4.401-10.042 13.15-12.634 20.118-9.753-3.549-24.29-6.826-30.505.475-4.021 4.723-3.672 12.64 1.036 23.533 1.597 3.696 3.907 8.09 6.639 12.071h-2.036c-12.406 0-22.5 10.093-22.5 22.5v103.5h-37.5c-12.406 0-22.5 10.093-22.5 22.5v103.5h-32c-8.271 0-15 6.728-15 14.998v5c0 11.029 8.972 20.002 20 20.002h472c11.028 0 20-8.973 20-20.002v-5c0-8.27-6.729-14.998-15-14.998zm-214.543-129.585c-1.481 1.261-3.197 2.5-4.954 3.585h-43.007c-1.762-1.086-3.456-2.311-4.953-3.585-5.015-4.269-10.559-15.755-11.757-21.425 4.237.201 12.385 2.065 19.256 5.718 2.071 1.102 4.538 1.17 6.666.186 2.13-.983 3.676-2.907 4.18-5.197 1.668-7.587 5.519-14.987 8.112-18.352 2.594 3.365 6.444 10.765 8.112 18.352.504 2.291 2.05 4.214 4.18 5.197 2.128.984 4.595.916 6.666-.186 6.872-3.653 15.019-5.518 19.256-5.718-1.198 5.669-6.742 17.156-11.757 21.425zm5.543-322.415c4.142 0 7.5 3.358 7.5 7.5s-3.358 7.5-7.5 7.5-7.5-3.358-7.5-7.5 3.358-7.5 7.5-7.5zm0 30c9.023 0 12.743 3.966 13.438 5.317-.115 11.721-4.085 26.758-8.302 37.683h-10.273c-4.217-10.925-8.187-25.962-8.302-37.683.696-1.351 4.416-5.317 13.439-5.317zm-60-30c4.142 0 7.5 3.358 7.5 7.5s-3.358 7.5-7.5 7.5-7.5-3.358-7.5-7.5 3.358-7.5 7.5-7.5zm0 32.854c4.313 7.534 10.707 24.623 12.769 40.146h-25.537c2.061-15.522 8.456-32.612 12.768-40.146zm-46 62.646c0-4.136 3.364-7.5 7.5-7.5h17.569.049 41.764.049 28.747c.113.003.223.003.336 0h19.973c.113.003.224.003.335 0h24.178c4.136 0 7.5 3.364 7.5 7.5v13.5h-120.5c-4.143 0-7.5 3.358-7.5 7.5s3.357 7.5 7.5 7.5h120.5v76h-112.536c2.731-3.981 5.042-8.375 6.639-12.071 4.708-10.893 5.057-18.81 1.037-23.532-6.215-7.301-20.753-4.026-30.506-.476-2.592-6.968-6.883-15.717-12.634-20.118zm-26.458 85.208c2.071 1.102 4.538 1.17 6.666.186 2.13-.983 3.676-2.907 4.18-5.197 1.668-7.587 5.519-14.987 8.112-18.352 2.594 3.365 6.444 10.765 8.112 18.352.504 2.291 2.05 4.214 4.18 5.197 2.128.984 4.595.916 6.666-.186 6.872-3.653 15.019-5.518 19.256-5.718-1.198 5.669-6.742 17.156-11.757 21.425-1.481 1.261-3.197 2.5-4.954 3.585h-43.007c-1.762-1.086-3.456-2.311-4.953-3.585-5.015-4.269-10.559-15.755-11.757-21.425 4.237.2 12.385 2.065 19.256 5.718zm-33.542 70.292h180.5c4.143 0 7.5-3.358 7.5-7.5s-3.357-7.5-7.5-7.5h-180.5v-13.5c0-4.136 3.364-7.5 7.5-7.5h68.282c.167.006.337.006.508 0h184.21c4.136 0 7.5 3.364 7.5 7.5v13.5h-52.5c-4.143 0-7.5 3.358-7.5 7.5s3.357 7.5 7.5 7.5h52.5v75h-91.036c2.731-3.981 5.042-8.375 6.639-12.071 4.708-10.893 5.057-18.81 1.037-23.532-6.215-7.301-20.753-4.026-30.506-.476-3.617-9.727-10.546-22.921-20.134-22.921s-16.517 13.194-20.134 22.921c-9.753-3.549-24.29-6.826-30.505.475-4.021 4.723-3.672 12.64 1.036 23.533 1.597 3.696 3.907 8.09 6.639 12.071h-91.036zm242.542 181.708c2.071 1.102 4.538 1.17 6.666.186 2.13-.983 3.676-2.907 4.18-5.197 1.668-7.587 5.519-14.987 8.112-18.352 2.594 3.365 6.444 10.765 8.112 18.352.504 2.291 2.05 4.214 4.18 5.197 2.128.984 4.596.916 6.666-.186 6.872-3.653 15.019-5.518 19.256-5.718-1.198 5.669-6.742 17.156-11.757 21.425-1.481 1.261-3.197 2.5-4.954 3.585h-43.007c-1.762-1.086-3.456-2.311-4.953-3.585-5.015-4.269-10.559-15.755-11.757-21.425 4.237.2 12.385 2.065 19.256 5.718zm132.458 39.29c0 2.711-2.29 5.002-5 5.002h-472c-2.71 0-5-2.291-5-5.002v-4.998h39.451.098l352.19-.001c.197.008.396.008.593 0h89.668z"/></svg>