<svg id="Capa_1" enable-background="new 0 0 511.976 511.976" height="512" viewBox="0 0 511.976 511.976" width="512" xmlns="http://www.w3.org/2000/svg"><g><path d="m134.815 95.997c9.818 0 17.777-7.959 17.777-17.777s-7.959-17.777-17.777-17.777-17.777 7.959-17.777 17.777 7.959 17.777 17.777 17.777z"/><path d="m377.294 95.997c9.818 0 17.777-7.959 17.777-17.777s-7.959-17.777-17.777-17.777-17.777 7.959-17.777 17.777 7.959 17.777 17.777 17.777z"/><path d="m256.055 158.451c9.818 0 17.777-7.959 17.777-17.777s-7.959-17.777-17.777-17.777-17.777 7.959-17.777 17.777 7.959 17.777 17.777 17.777z"/><path d="m494.654 9.808h-17.207c-16.292 0-30.691 8.244-39.257 20.776-7.519-6.917-17.689-10.421-27.869-9.568-5.885-12.49-18.643-21.016-33.027-21.016s-27.142 8.526-33.027 21.016c-9.561-.797-19.121 2.246-26.481 8.354-2.404-.225-4.829-.344-7.243-.344-20.484 0-40.045 8.258-54.354 22.55-14.309-14.292-33.869-22.55-54.354-22.55-2.495 0-4.999.129-7.481.369-7.362-6.125-16.932-9.178-26.512-8.379-5.885-12.49-18.643-21.016-33.027-21.016-14.383 0-27.141 8.526-33.027 21.016-10.209-.851-20.421 2.677-27.95 9.642-8.559-12.574-22.985-20.85-39.309-20.85h-17.208c-5.523 0-10 4.478-10 10v17.207c0 22.721 16.032 41.758 37.375 46.42-8.797 10.487-14.207 23.744-14.755 37.809-.369 9.465 1.345 18.651 4.927 27.071l37.546 106.554c11.203 31.793 30.377 60.508 55.45 83.04 22.079 19.841 48.44 34.616 76.821 43.158l-47.163 104.453c-1.988 4.402-.545 9.596 3.428 12.342 3.974 2.745 9.342 2.259 12.757-1.155 6.084-6.085 14.174-9.437 22.779-9.437s16.695 3.352 22.78 9.437c10.179 10.179 23.55 15.269 36.921 15.269s26.742-5.09 36.922-15.269c12.561-12.561 32.999-12.56 45.559 0 3.415 3.415 8.783 3.9 12.757 1.155 3.973-2.746 5.416-7.939 3.428-12.342l-47.163-104.453c28.381-8.542 54.742-23.317 76.821-43.158 25.073-22.532 44.247-51.247 55.45-83.04l37.547-106.556c3.581-8.419 5.295-17.604 4.926-27.069-.553-14.191-5.951-27.444-14.756-37.901 21.142-4.812 36.975-23.75 36.975-46.328v-17.207c.001-5.523-4.476-10-9.999-10zm-44.118 143.603c-8.147 8.471-19.105 13.136-30.854 13.136-8.153 0-16.077-2.299-22.915-6.649-3.015-1.918-6.168-3.546-9.414-4.896 10.082-2.922 18.504-10.104 22.968-19.578 13.767 1.151 27.522-5.639 34.713-18.094 4.38-7.586 5.703-16.229 4.302-24.392 7.801 7.521 12.678 17.876 13.115 29.085.459 11.775-3.772 22.922-11.915 31.388zm-123.819 79.432h-7.207c-15.176 0-27.522-12.347-27.522-27.522v-7.207h7.207c15.176 0 27.522 12.347 27.522 27.522zm-150.417-76.135c-6.829-3.442-14.18-5.495-21.64-6.194 5.655-3.688 10.264-8.9 13.182-15.09 6.16.518 12.316-.569 17.887-3.033 1.064 2.911 2.48 5.703 4.271 8.283-3.92 5.647-6.135 12.279-6.485 19.053-2.465-.84-4.876-1.84-7.215-3.019zm-126.373-34.685c.427-10.953 5.188-21.191 12.788-28.711-1.297 8.053.047 16.547 4.36 24.018 7.191 12.455 20.946 19.241 34.713 18.094 4.488 9.523 12.978 16.729 23.131 19.62-3.209 1.341-6.326 2.956-9.309 4.854-6.837 4.351-14.761 6.649-22.915 6.649-11.749 0-22.707-4.665-30.854-13.136-8.142-8.466-12.373-19.613-11.914-31.388zm159.831 10.761c-6.44-5.016-8.212-14.138-4.123-21.221 4.089-7.082 12.877-10.105 20.438-7.039 2.857 1.16 6.09.936 8.761-.605 2.671-1.542 4.48-4.229 4.905-7.284 1.123-8.084 8.137-14.181 16.315-14.181s15.192 6.097 16.315 14.181c.424 3.055 2.234 5.742 4.904 7.284 2.67 1.541 5.904 1.767 8.761.605 7.564-3.067 16.351-.043 20.439 7.039 4.089 7.083 2.316 16.206-4.123 21.221-2.433 1.895-3.856 4.806-3.856 7.89s1.423 5.995 3.856 7.89c6.439 5.016 8.212 14.138 4.123 21.22-4.088 7.083-12.873 10.107-20.439 7.04-2.857-1.16-6.091-.937-8.761.605s-4.48 4.229-4.904 7.284c-1.123 8.084-8.137 14.181-16.315 14.181s-15.192-6.097-16.315-14.181c-.424-3.055-2.234-5.742-4.905-7.284-1.54-.89-3.266-1.34-5-1.34-1.273 0-2.55.243-3.76.734-7.563 3.066-16.35.042-20.438-7.041-4.089-7.081-2.317-16.203 4.123-21.219 2.433-1.895 3.856-4.806 3.856-7.89s-1.424-5.994-3.857-7.889zm118.843 27.038c-.335-6.806-2.554-13.474-6.493-19.148 1.791-2.58 3.207-5.372 4.272-8.283 5.572 2.464 11.728 3.551 17.886 3.033 2.923 6.202 7.543 11.423 13.213 15.112-7.378.72-14.644 2.767-21.401 6.172-2.426 1.223-4.923 2.258-7.477 3.114zm18.712-117.752c2.857 1.159 6.09.936 8.761-.605 2.67-1.542 4.48-4.229 4.905-7.284 1.123-8.084 8.137-14.181 16.315-14.181s15.192 6.097 16.315 14.181c.424 3.055 2.234 5.742 4.905 7.284s5.903 1.767 8.761.605c7.562-3.066 16.35-.043 20.438 7.041 4.089 7.081 2.317 16.203-4.124 21.219-2.433 1.895-3.856 4.806-3.856 7.89s1.423 5.995 3.856 7.89c6.44 5.016 8.213 14.138 4.124 21.221s-12.876 10.105-20.438 7.039c-2.857-1.161-6.091-.937-8.761.605s-4.48 4.229-4.905 7.284c-1.124 8.084-8.137 14.181-16.315 14.181s-15.192-6.097-16.316-14.181c-.424-3.055-2.234-5.742-4.905-7.284-1.54-.889-3.267-1.34-5-1.34-1.273 0-2.55.243-3.76.734-7.564 3.07-16.35.044-20.438-7.039-4.089-7.083-2.316-16.206 4.123-21.221 2.433-1.895 3.856-4.806 3.856-7.89s-1.423-5.995-3.856-7.89c-6.44-5.015-8.212-14.138-4.124-21.22 4.089-7.083 12.877-10.105 20.439-7.039zm-41.714 7.198c-2.241 9.98-.188 20.554 5.641 28.952-1.791 2.581-3.207 5.374-4.272 8.285-5.572-2.464-11.729-3.552-17.886-3.035-3.79-8.041-10.437-14.422-18.523-17.959 9.404-9.294 21.817-15.077 35.04-16.243zm-63.858 16.162c-8.172 3.521-14.894 9.937-18.713 18.04-6.161-.512-12.316.575-17.886 3.037-1.065-2.912-2.481-5.706-4.273-8.287 5.834-8.405 7.885-18.989 5.636-28.977 13.288 1.106 25.776 6.876 35.236 16.187zm-157.345-16.32c4.089-7.083 12.875-10.109 20.438-7.04 2.857 1.159 6.09.936 8.761-.605 2.67-1.542 4.48-4.229 4.905-7.284 1.123-8.084 8.137-14.181 16.315-14.181s15.192 6.097 16.316 14.181c.424 3.055 2.234 5.742 4.905 7.284s5.903 1.767 8.761.605c7.562-3.067 16.35-.043 20.439 7.04 4.089 7.082 2.316 16.205-4.124 21.22-2.433 1.895-3.856 4.806-3.856 7.89s1.423 5.995 3.856 7.89c6.439 5.015 8.212 14.138 4.124 21.221-4.089 7.082-12.876 10.105-20.439 7.039-2.858-1.161-6.091-.937-8.761.605s-4.48 4.229-4.905 7.284c-1.124 8.084-8.138 14.181-16.316 14.181s-15.192-6.097-16.315-14.181c-.424-3.055-2.234-5.742-4.905-7.284-1.54-.889-3.267-1.34-5-1.34-1.273 0-2.55.243-3.76.734-7.561 3.069-16.349.044-20.438-7.039s-2.317-16.205 4.124-21.221c2.433-1.895 3.856-4.806 3.856-7.89s-1.423-5.995-3.856-7.89c-6.442-5.015-8.215-14.137-4.125-21.219zm-57.075-12.095v-7.207h7.207c15.176 0 27.522 12.347 27.522 27.522v7.207h-7.207c-15.175 0-27.522-12.347-27.522-27.522zm63.957 211.208-23.541-66.807c7.763 3.36 16.209 5.131 24.958 5.131 11.963 0 23.599-3.38 33.649-9.774 12.363-7.861 28.054-8.706 40.953-2.205 7.019 3.539 14.502 5.944 22.258 7.191 7.459 11.189 20.468 17.209 33.472 16.119 5.886 12.488 18.645 21.016 33.027 21.016 6.042 0 11.788-1.521 16.867-4.191 4.368 21.726 23.595 38.141 46.588 38.141h3.282c-2.474 10.517-5.631 20.996-9.518 31.382-6.213 16.598-13.984 32.154-23.055 46.597.063.034.123.073.186.108-7.527 11.971-15.947 23.177-25.155 33.542h-18.738c-20.341-22.896-36.897-49.844-48.278-80.247-4.649-12.419-8.267-24.971-10.902-37.563-1.712-8.181-13.393-8.387-15.399-.273-6.945 28.103-5.777 58.52 5.138 87.679 2.368 6.327 5.132 12.388 8.234 18.184-15.988-7.535-30.883-17.365-44.073-29.218-22.586-20.301-39.86-46.17-49.953-74.812zm187.691 234.341c-12.561 12.561-32.999 12.561-45.559 0-9.862-9.862-22.975-15.294-36.922-15.294-3.096 0-6.15.268-9.138.792l37.743-83.591h16.869l-7.823 20.438c-1.974 5.158.606 10.94 5.765 12.914 1.176.45 2.384.664 3.573.664 4.023 0 7.817-2.446 9.341-6.428l3.68-9.613 3.68 9.613c1.524 3.981 5.317 6.428 9.341 6.428 1.188 0 2.397-.214 3.573-.664 5.158-1.974 7.739-7.756 5.765-12.914l-7.823-20.438h16.252l37.759 83.625c-16.229-2.865-33.566 1.959-46.076 14.468zm142.131-234.341c-10.093 28.643-27.367 54.512-49.955 74.811-13.418 12.058-28.599 22.024-44.902 29.608 3.189-5.914 6.026-12.104 8.448-18.573 10.213-27.284 11.891-55.669 6.375-82.23 3.342-1.619 5.653-5.033 5.653-8.995v-17.207c0-18.243-10.339-34.109-25.459-42.071.435-.573.862-1.154 1.266-1.757 7.854-1.229 15.426-3.646 22.557-7.24 12.899-6.504 28.59-5.657 40.951 2.205 10.051 6.395 21.687 9.774 33.65 9.774 8.749 0 17.195-1.771 24.958-5.132zm63.554-211.208c0 15.176-12.347 27.522-27.522 27.522h-7.207v-7.207c0-15.176 12.347-27.522 27.522-27.522h7.207z"/></g></svg>